<?xml version="1.0" encoding="UTF-8"?>
<!DOCTYPE svg PUBLIC "-//W3C//DTD SVG 1.1//EN" "http://www.w3.org/Graphics/SVG/1.1/DTD/svg11.dtd">
<!-- Creator: CorelDRAW 2020 (64-Bit) -->
<svg xmlns="http://www.w3.org/2000/svg" xml:space="preserve" width="1.70509in" height="0.460697in" version="1.1" style="shape-rendering:geometricPrecision; text-rendering:geometricPrecision; image-rendering:optimizeQuality; fill-rule:evenodd; clip-rule:evenodd"
viewBox="0 0 39.81 10.76"
 xmlns:xlink="http://www.w3.org/1999/xlink"
 xmlns:xodm="http://www.corel.com/coreldraw/odm/2003">
 <defs>
  <style type="text/css">
   <![CDATA[
    .str0 {stroke:black;stroke-width:0.16;stroke-miterlimit:2.61313}
    .fil0 {fill:black}
   ]]>
  </style>
 </defs>
 <g id="Layer_x0020_1">
  <metadata id="CorelCorpID_0Corel-Layer"/>
  <path class="fil0 str0" d="M29.47 1.01c-3.27,-0.76 -7.19,-0.94 -10.44,-0.92 -3.51,0.01 -16.06,0.49 -18.84,1.65 -0.14,0.71 -0.14,6.65 0.01,7.33 3.68,1.3 17.29,1.76 21.55,1.58 3.48,-0.14 7.02,-0.59 10.18,-1.45 2.08,-0.57 7.03,-2.41 7.78,-3.86 -2.19,-2.09 -6.47,-3.7 -10.25,-4.32zm-12.65 -0.18c1.21,0.38 1.48,0.47 2.47,1.54 1.79,1.93 1.49,5.4 -1.15,6.96 -0.45,0.32 -0.99,0.41 -1.42,0.6 4.88,0.33 15.64,-0.87 19.95,-3.24 0.72,-0.32 1.73,-0.8 2.08,-1.27 -4.25,-3.69 -15.92,-4.99 -21.93,-4.59zm-15.97 1.45l-0.02 6.21c3.2,0.72 10.21,1.54 13.58,1.36l-0.61 -0.35c-0.29,-0.14 -0.4,-0.19 -0.67,-0.36 -0.33,-0.21 -0.81,-0.66 -1.07,-1 -1.33,-1.7 -1.26,-4.16 0.3,-5.85 0.44,-0.48 1.59,-1.41 2.46,-1.39 -2.83,-0.28 -11.27,0.73 -13.98,1.38zm8.79 -0.45c-1.23,-0.04 -7.71,0.62 -8.55,1.06l-0.04 5.05c2.07,0.42 6.43,1.06 8.58,0.99 1.24,-3.12 1.01,-4.21 0,-7.1zm9.91 2.54c-1.56,-5.1 -8.83,-2.74 -7.59,1.95 0.48,1.82 2.4,3.41 4.84,2.81 1.77,-0.43 3.47,-2.44 2.76,-4.76zm1.56 -2.86c0.87,0.92 2.02,1.58 2.1,3.69 0.03,0.87 -0.18,1.65 -0.55,2.33 -0.48,0.88 -1.03,1.02 -1.38,1.72 1.75,0 3.51,-0.01 4.79,-0.77 0.95,-0.56 2.29,-1.63 2.18,-3.28 -0.09,-1.47 -1.4,-2.48 -2.42,-3.04 -1.17,-0.66 -3.17,-0.74 -4.72,-0.64zm-2.19 3.09c-1.13,-4.18 -7.44,-2.43 -6.27,1.67 1.14,3.98 7.36,2.38 6.27,-1.67zm-3.15 0.42l0 0.74 6.55 0 0 -0.74 -6.55 0zm-6.42 -1.78c-1.68,-0.06 -5.29,0.44 -6.88,0.76 -0.02,0.79 -0.13,2.11 0.08,2.82 1.95,0.28 4.86,0.76 6.8,0.73 0.62,-0.89 0.6,-3.42 0,-4.31zm18.6 -0.34c0.41,0.73 0.98,1.2 0.99,2.44 0.02,1.28 -0.54,1.74 -0.98,2.55 2.05,-0.09 4.41,-1.03 6.22,-1.75 0.65,-0.26 1.34,-0.39 1.84,-0.76 -1.34,-0.84 -6.61,-2.46 -8.07,-2.48zm-19.04 1.07c-1.2,-0.12 -4.46,0.39 -5.74,0.61l-0.01 1.63c1.16,0.21 4.69,0.71 5.75,0.62 0.2,-0.92 0.24,-1.95 0.01,-2.85z"/>
 </g>
</svg>
