<svg width="300" height="300" xmlns="http://www.w3.org/2000/svg" xmlns:undefined="http://www.w3.org/2000/svg" version="1.1">

 <g>
  <g id="svg_1" text-anchor="none" font-size="none" font-weight="none" font-family="none" stroke-dashoffset="0" stroke-miterlimit="10" fill-rule="evenodd" fill="#2a2532">
   <g id="svg_2" data-paper-data="isGlobalGroup:true,bounds:x:129.53387347263006,y:106,width:290.9322530547398,height:258">
    <g id="element-id-52570" data-paper-data="fillRule:evenodd,fillRuleOriginal:evenodd,isIcon:true,iconStyle:standalone,selectedEffects:container:circle_simple_outline3,pattern:,bounds:x:187.49491748409037,y:147.49475629022038,width:175.01049893340712,height:139.80229205901514,widthRatioIconToContainer:0.6321189616035812,heightRatioIconToContainer:0.7655022858350078,relativeBoundsIconToContainer:top:-0.02471514504141924,left:0.0007488842185538426,iconType:icon,rawIconId:342483,combineTerms:boat,isDetailed:false,blockLetter:O,suitableAsStandaloneIcon:false">
     <path id="element-id-17574" data-paper-data="isPathIcon:true" d="m116.93807,67.37275c-10.46939,4.42817 -19.74057,10.67874 -27.81354,18.75172c-8.0729,8.0729 -14.32345,17.34404 -18.75166,27.81343c-4.5853,10.8409 -6.87795,22.1949 -6.87795,34.06199c0.00001,11.86702 2.29266,23.22124 6.87795,34.06268c2.76914,6.54677 6.25092,12.62493 10.44534,18.23448c2.64604,-0.28324 5.2918,-0.55075 7.9373,-0.80252c-5.02664,-6.05091 -9.08769,-12.73585 -12.18315,-20.05482c-4.23088,-10.00277 -6.34632,-20.48271 -6.34632,-31.43983c0,-10.95704 2.11544,-21.43698 6.34632,-31.43983c4.08719,-9.66327 9.85781,-18.22193 17.31188,-25.676c7.45407,-7.45407 16.01273,-13.22469 25.676,-17.31188c10.00277,-4.23083 20.48271,-6.34625 31.43983,-6.34625c10.95696,0 21.4369,2.11542 31.43983,6.34625c9.66357,4.08719 18.22182,9.85781 25.67588,17.31188c7.45407,7.45407 13.22481,16.01273 17.31222,25.676c4.23019,10.00277 6.34528,20.48271 6.34528,31.43983c0,10.95711 -2.11509,21.43706 -6.34528,31.43983c-3.09607,7.3182 -7.15701,14.00314 -12.1828,20.05482c2.64588,0.25177 5.29138,0.51927 7.9365,0.80252c4.19449,-5.60955 7.67628,-11.68771 10.44536,-18.23448c4.58558,-10.84144 6.87837,-22.19567 6.87837,-34.06268c0,-11.86709 -2.29279,-23.22109 -6.87837,-34.06199c-4.42823,-10.46931 -10.67909,-19.74049 -18.75145,-27.81343c-8.07274,-8.07297 -17.34408,-14.32355 -27.814,-18.75172c-10.84044,-4.58533 -22.19432,-6.87799 -34.06165,-6.87799c-11.86702,0 -23.22097,2.29266 -34.06188,6.87799l-0.00001,0zm80.95455,130.84375c-0.22337,-0.25791 -0.48704,-0.48588 -0.7887,-0.67126c-1.3759,-1.25156 -3.64068,-1.05927 -5.02004,0.28094c1.93586,0.12128 3.87211,0.25139 5.80874,0.39032zm-23.75767,-1.26998c-0.09902,-0.038 -0.1993,-0.07369 -0.29924,-0.10708c-0.75968,-0.20725 -1.5531,-0.2107 -2.28101,0.02072c0.86047,0.02687 1.72055,0.05565 2.58025,0.08635l0,0.00001zm-43.58809,-0.08981c-0.97396,-0.43177 -2.14503,-0.37535 -3.1442,0.10593c1.04715,-0.03761 2.09521,-0.07292 3.1442,-0.10593zm-20.51365,0.96141c-1.32616,-1.45765 -3.48973,-1.68217 -5.29833,-0.13241c-0.23085,0.14738 -0.4305,0.32584 -0.59895,0.52849c1.96603,-0.14047 3.93179,-0.27249 5.89728,-0.39608zm71.13555,-2.67006l25.10249,-52.03753c0.56303,-1.83335 -0.28209,-3.80763 -1.97462,-4.51274l-10.85871,-4.93576l0,-31.30696l-10.15406,0l0,-15.9354l-25.38366,0l0,-9.73058l-15.08936,0l0,9.73058l-23.83274,0l0,16.07644l-10.1536,0l0,31.30696l-10.85871,4.79471c-1.69219,0.70511 -2.53834,2.67939 -1.97428,4.51274l24.96087,51.89591c1.83335,-0.70465 3.52566,-1.97462 5.0768,-3.9481c1.26929,-1.83416 3.80763,-2.25671 5.49993,-0.84627c0.56406,0.42256 0.98708,0.98674 1.26917,1.69254c2.11532,2.39718 4.51274,3.80763 7.19213,3.80763c2.82043,0 5.49982,-1.55207 7.75619,-4.51343c0.9872,-1.41045 2.6795,-1.97462 4.23065,-1.55092c0.84615,0.14047 1.69231,0.70465 2.25637,1.55092c2.25637,2.82089 4.79471,4.51343 7.75619,4.51343c2.82043,0 5.49993,-1.55207 7.7563,-4.51343c0.98708,-1.41045 2.67939,-1.97462 4.23065,-1.55092c0.84558,0.14047 1.69184,0.70465 2.25602,1.55092c1.55207,1.833 3.10298,3.24345 4.93599,3.94925l-0.00001,0.00001zm-7.05108,-83.62646l10.15406,0l0,18.05083l-29.19198,-12.97403c-2.53846,-1.12824 -5.35889,-1.12824 -7.89723,0l-29.19163,12.97403l0,-18.05083l10.1536,0l0,-16.07656l45.97318,0l0,16.07656zm-6.62795,-9.16641l-32.71717,0l0,9.1664l32.71717,0l0,-9.1664z"/>
    </g>
    <g id="svg_3">
     <path id="element-id-21759" d="m5.53387,238.33535l26.81863,17.71636c78.35968,-15.28924 158.93577,-15.28924 237.29557,0l26.81805,-17.71636l-18.03414,-27.30164c-84.16162,-16.4199 -170.70224,-16.4199 -254.86294,0l-18.03517,27.30164zm184.96916,-11.07287l0.71731,-15.34105c0.05296,-1.12605 -0.81748,-2.0817 -1.94354,-2.13467c-1.12605,-0.05181 -2.0817,0.81748 -2.13467,1.94354l-0.48704,10.42003l-11.3066,-12.41538c-0.55612,-0.61023 -1.42438,-0.82554 -2.20145,-0.54576c-0.77649,0.27979 -1.30797,0.9994 -1.34643,1.82494l-1.02462,21.91661c-0.05262,1.12605 0.8176,2.0817 1.94354,2.13467c1.12594,0.05296 2.08205,-0.81748 2.13386,-1.94354l0.79446,-16.99559l10.73781,11.79133l-0.038,0.80827l-3.99415,-4.38678c-0.75876,-0.83245 -2.04946,-0.89347 -2.88307,-0.13471c-0.8336,0.75876 -0.89347,2.05062 -0.13471,2.88307l7.31244,8.02976c0.3719,0.40874 0.88311,0.64017 1.4139,0.6655c0.26252,0.01151 0.53079,-0.02648 0.78755,-0.11974c0.77603,-0.27979 1.30797,-0.9994 1.34597,-1.82379l0.30742,-6.57441l0.00002,-0.0023zm-55.56721,3.53821c-3.10759,0.09787 -5.71513,-2.35113 -5.81288,-5.45872l-0.448,-14.2553c-0.03535,-1.12605 -0.97753,-2.01032 -2.10416,-1.97578c-1.12663,0.03569 -2.01135,0.97753 -1.97589,2.10473l0.448,14.25414c0.16833,5.35739 4.66391,9.57952 10.02108,9.41142c1.12663,-0.03569 2.01135,-0.97753 1.97601,-2.10473c-0.03546,-1.12605 -0.97753,-2.01147 -2.10416,-1.97578l0,0.00002zm-18.63378,-4.89109c0.16004,3.10528 2.81629,5.50132 5.92123,5.34127c1.12571,-0.05757 2.08539,0.80712 2.14342,1.93318c0.05803,1.12605 -0.80758,2.08516 -1.93329,2.14388c-5.35279,0.27518 -9.93219,-3.85484 -10.20806,-9.20762l-0.73412,-14.24263c-0.05803,-1.12605 0.80758,-2.08631 1.93329,-2.14388c1.12571,-0.05757 2.08539,0.80712 2.14342,1.93318l0.73411,14.24262zm-34.71966,2.83817c0.32895,3.09262 3.11185,5.34012 6.20343,5.01083c1.12087,-0.11974 2.12626,0.69313 2.24555,1.81343c0.11928,1.12145 -0.69279,2.12661 -1.81366,2.2452c-5.32976,0.56763 -10.12735,-3.30678 -10.69452,-8.63654l-1.509,-14.18276c-0.11928,-1.1203 0.69279,-2.12546 1.81366,-2.2452c1.12087,-0.11974 2.12638,0.69313 2.24555,1.81343l0.51352,4.82661l5.60678,-0.59757c1.12087,-0.11859 2.12638,0.69313 2.24566,1.81458c0.11917,1.1203 -0.6929,2.12546 -1.81366,2.2452l-5.6069,0.59642l0.56359,5.29637zm71.30203,-11.41598c0.13529,-0.99134 0.9796,-1.75816 2.00848,-1.76392c1.12721,-0.00576 2.04624,0.90269 2.05257,2.02989l0.08428,15.05205c0.00633,1.12721 -0.90246,2.04601 -2.02955,2.05292c-1.02899,0.00576 -1.88182,-0.75185 -2.02816,-1.74089c-1.55241,1.11109 -3.44851,1.77198 -5.49821,1.7835c-5.27553,0.02878 -9.59138,-4.23825 -9.62097,-9.51389c-0.02959,-5.27565 4.23825,-9.59219 9.51378,-9.62097c2.0497,-0.01151 3.95305,0.6275 5.51778,1.72132l0,-0.00001zm-46.33207,-0.25101c-1.02554,0.0829 -1.81044,0.90959 -1.87146,1.90784c-1.64187,-0.97292 -3.5876,-1.46917 -5.63073,-1.30452c-5.25872,0.42256 -9.193,5.04422 -8.77044,10.30259c0.42267,5.25953 5.04445,9.19381 10.30317,8.77125c2.04313,-0.16465 3.88477,-0.96486 5.35002,-2.18763c0.21968,0.97522 1.12663,1.66721 2.15228,1.58431c1.12352,-0.08981 1.96127,-1.07424 1.871,-2.19799l-1.20573,-15.00485c-0.09038,-1.12375 -1.07447,-1.96081 -2.19811,-1.871zm-55.06687,7.32857c-0.75191,-4.38908 -4.93397,-7.34814 -9.32259,-6.59513l-9.64158,1.65109c-1.11109,0.19113 -1.85753,1.2458 -1.66709,2.35688l1.11155,6.48805c0.09142,0.53309 0.39113,1.00861 0.83291,1.32179l8.86612,6.27159c0.92019,0.65168 2.19396,0.43292 2.84484,-0.48704c0.65122,-0.91996 0.43304,-2.19454 -0.48738,-2.84507l-8.17575,-5.78456l-0.62417,-3.64298l7.62988,-1.30682c2.1699,-0.3719 4.23802,1.09151 4.60975,3.26072c0.21904,1.27919 -0.2011,2.59062 -1.12371,3.50827c-0.47115,0.46861 -0.68461,1.13642 -0.57235,1.79155c0.11214,0.65514 0.53597,1.21356 1.13607,1.4991c1.17568,0.55842 2.00834,1.65454 2.22738,2.93373c0.37178,2.16921 -1.09128,4.23825 -3.26121,4.60899l-1.23924,0.21301l-8.17598,-5.78456c-0.92019,-0.65053 -2.19385,-0.43292 -2.84484,0.48819c-0.65099,0.91996 -0.43304,2.19339 0.48738,2.84392l8.86612,6.27274c0.44179,0.31318 0.98985,0.43637 1.52351,0.34542l2.07261,-0.35463c4.38864,-0.75185 7.34727,-4.93484 6.59536,-9.32276c-0.305,-1.78004 -1.19689,-3.38622 -2.49742,-4.58136c0.8282,-1.56013 1.13482,-3.3701 0.82981,-5.15014l0.00002,0.00001zm157.57328,-4.46968c0.22107,-0.97522 1.12836,-1.66605 2.15424,-1.582c1.12375,0.09096 1.95966,1.07654 1.8687,2.2003l-1.22392,15.00254c-0.09096,1.12375 -1.07654,1.95966 -2.2003,1.8687c-1.02588,-0.08405 -1.80883,-0.9119 -1.8687,-1.91015c-1.64303,0.97177 -3.59002,1.46456 -5.63257,1.29761c-5.25837,-0.42832 -9.1869,-5.05458 -8.75858,-10.31295c0.42947,-5.25837 5.05573,-9.1869 10.3141,-8.75858c2.04256,0.16695 3.88362,0.96947 5.34703,2.19454l0,-0.00001zm56.66195,21.13022c-3.06153,-0.54461 -5.10869,-3.47718 -4.56409,-6.53871l2.49735,-14.04114c0.19804,-1.10993 -0.5423,-2.17036 -1.65224,-2.36725c-1.10993,-0.19804 -2.16921,0.5423 -2.3661,1.65224l-2.4985,14.04114c-0.93838,5.2768 2.59177,10.33368 7.86856,11.27321c1.10993,0.19689 2.16921,-0.5423 2.36725,-1.65224c0.19689,-1.10993 -0.5423,-2.17036 -1.65224,-2.36725l0.00001,0zm-31.43165,-19.93738c-0.94414,-0.61714 -2.20836,-0.35348 -2.8255,0.58951l-6.98085,10.66643l-4.34533,-11.98361c-0.38341,-1.05927 -1.55437,-1.60733 -2.61479,-1.22277c-1.05927,0.38456 -1.60618,1.55437 -1.22277,2.61479l5.73735,15.82118c0.26367,0.72652 0.91535,1.24234 1.68332,1.33215c0.76797,0.08866 1.51983,-0.26367 1.94354,-0.91075l9.21453,-14.08259c0.61714,-0.94298 0.35348,-2.2072 -0.58951,-2.82435l0.00001,0.00001zm-92.35408,4.0759c0.01693,3.02469 2.49148,5.47138 5.51594,5.45411c3.02457,-0.01612 5.4715,-2.4916 5.45457,-5.51628c-0.01693,-3.02354 -2.49148,-5.47138 -5.51594,-5.45411c-3.02457,0.01727 -5.4715,2.4916 -5.45457,5.51628zm-70.56871,-4.74486c-1.01963,0.13817 -1.75821,1.00746 -1.76481,2.00686c-1.69247,-0.88196 -3.66228,-1.27113 -5.69345,-0.99595c-5.22787,0.7081 -8.90451,5.53701 -8.19605,10.76545c0.70846,5.22729 5.53778,8.90481 10.76565,8.19556c2.03117,-0.27518 3.82639,-1.17441 5.2229,-2.47548c0.27253,0.96256 1.21575,1.60388 2.23541,1.46571c1.11696,-0.15198 1.89978,-1.18017 1.74849,-2.29701l-2.02149,-14.91619c-0.15141,-1.11799 -1.17971,-1.89978 -2.29667,-1.74895l0.00002,0zm28.88962,12.22541c-3.0149,0.24179 -5.66481,-2.01377 -5.90706,-5.02925c-0.24237,-3.01433 2.01343,-5.66481 5.02833,-5.9066c3.0149,-0.24294 5.66481,2.01377 5.90706,5.0281c0.24237,3.01548 -2.01343,5.66481 -5.02833,5.90776l0,-0.00001zm97.21073,-5.85364c-0.2464,3.01433 2.00686,5.66712 5.02119,5.91351c3.01433,0.24524 5.66712,-2.00686 5.91351,-5.02119c0.24524,-3.01548 -2.00686,-5.66712 -5.02119,-5.91351c-3.01548,-0.24524 -5.66827,2.00686 -5.91351,5.02119zm53.92971,-1.66836c0.28439,-0.95795 1.23544,-1.58776 2.25326,-1.43578c1.11569,0.16465 1.88482,1.2032 1.71902,2.31774l-2.20951,14.88971c-0.16465,1.11569 -1.2032,1.88482 -2.31774,1.72017c-1.01782,-0.15198 -1.7455,-1.02934 -1.73974,-2.02989c-1.70405,0.86124 -3.67867,1.22507 -5.70511,0.92456c-5.21923,-0.77488 -8.83458,-5.64985 -8.05969,-10.86792c0.77373,-5.21923 5.64985,-8.83458 10.86792,-8.05969c2.02759,0.30051 3.81108,1.22277 5.19159,2.54111l0,-0.00001zm-185.4669,11.2237c-2.99722,0.40644 -5.76614,-1.70175 -6.17231,-4.6988c-0.40617,-2.99705 1.70186,-5.76614 4.69906,-6.17257c2.99722,-0.40644 5.76614,1.70175 6.17227,4.6988c0.40621,2.99705 -1.70183,5.76614 -4.69903,6.17257l0.00001,0zm173.44529,-5.10639c-0.44443,2.99245 1.62921,5.78686 4.62051,6.23129c2.9913,0.44443 5.78686,-1.62921 6.23129,-4.62051c0.44443,-2.99245 -1.62921,-5.78686 -4.62051,-6.23129c-2.99245,-0.44443 -5.78801,1.62921 -6.23129,4.62051z"/>
    </g>
    <g id="element-id-89312" data-paper-data="isContainerElementsWrapper:true">
     <path id="element-id-1016" data-paper-data="isBaseLogoContainer:true" d="m22.00006,148c0,-71.24481 57.7553,-129 129,-129c71.24435,0 129.00012,57.75519 129.00012,129c0,21.10811 -5.06955,41.0319 -14.05841,58.62045c-13.15879,-2.30814 -26.31759,-4.22021 -39.47638,-5.7362c10.50869,-14.968 16.67781,-33.20605 16.67781,-52.88425c0,-50.88914 -41.25412,-92.1429 -92.14314,-92.1429c-50.88914,0 -92.14285,41.25377 -92.14285,92.1429c0,19.6782 6.16862,37.91625 16.67764,52.88425c-13.15889,1.51599 -26.31772,3.42844 -39.47649,5.73735c-8.98852,-17.58971 -14.05829,-37.51338 -14.05829,-58.6216l-0.00001,0zm51.91237,103.44271c21.50626,16.05376 48.18707,25.55729 77.08763,25.55729c28.90102,0 55.58091,-9.50353 77.08763,-25.55729c-51.39175,-6.53603 -102.78351,-6.53603 -154.17526,0z"/>
    </g>
   </g>
  </g>
  <rect id="svg_4" data-element-name="isContainerElementsWrapper" height="258" width="258" y="19" x="22" class="invisible-element-box grouping-element" fill="transparent" stroke-width="2" data-element-id="element-id-89312"/>
  <rect id="svg_5" height="258" width="258" y="19" x="22" class="invisible-element-box individual-element" fill="transparent" stroke-width="2" data-element-id="element-id-1016"/>
  <rect id="svg_6" data-element-name="isIcon" height="140" width="175" y="60" x="63" class="invisible-element-box grouping-element" fill="transparent" stroke-width="2" data-element-id="element-id-52570"/>
  <rect id="svg_7" height="140" width="175" y="60" x="63" class="invisible-element-box individual-element" fill="transparent" stroke-width="2" data-element-id="element-id-17574"/>
  <rect id="svg_8" height="57" width="291" y="199" x="6" class="invisible-element-box individual-element" fill="transparent" stroke-width="2" data-element-id="element-id-21759"/>
 </g>
</svg>