<?xml version="1.0" encoding="UTF-8"?>
<!DOCTYPE svg PUBLIC "-//W3C//DTD SVG 1.1//EN" "http://www.w3.org/Graphics/SVG/1.1/DTD/svg11.dtd">
<!-- Creator: CorelDRAW 2020 (64-Bit) -->
<svg xmlns="http://www.w3.org/2000/svg" xml:space="preserve" width="160px" height="40px" version="1.1" style="shape-rendering:geometricPrecision; text-rendering:geometricPrecision; image-rendering:optimizeQuality; fill-rule:evenodd; clip-rule:evenodd"
viewBox="0 0 129.67 39.55"
 xmlns:xlink="http://www.w3.org/1999/xlink"
 xmlns:xodm="http://www.corel.com/coreldraw/odm/2003">
 <defs>
  <style type="text/css">
   <![CDATA[
    .fil1 {fill:black}
    .fil0 {fill:black;fill-rule:nonzero}
   ]]>
  </style>
 </defs>
 <g id="Layer_x0020_1">
  <metadata id="CorelCorpID_0Corel-Layer"/>
  <g>
   <path class="fil0" d="M-0 24.46l0 -9.25c0.3,-0.04 1.03,-0.19 1.29,-0.19 8.47,-1.24 16.93,-2.48 40.62,-3.16 0.1,-0 2.12,-0.01 3.56,-0.02 20.34,-3.95 40.67,-7.89 61.01,-11.84l0.21 0.75 3.36 12.33c3.51,0.81 6.81,1.9 9.81,3.41 3.56,1.79 6.68,4.16 9.21,7.33l0.6 0.76 -0.6 0.76c-3.48,4.36 -8.08,7.21 -13.38,9.1 -5.19,1.86 -11.05,2.8 -17.17,3.37l-0.15 0.01c-3.96,0.01 -7.75,0.01 -11.36,0.01 -3.39,-0 -6.63,-0.01 -9.72,-0.02l0 1.76 -6.37 0 -0.55 -1.83c-22.11,-0.19 -36.57,-0.69 -46.86,-1.33 -10.46,-0.66 -16.69,-1.47 -22.25,-2.29l-1.25 -0.18 0 -9.75 0 0.28zm2.98 -0.28l0 7.53c5.17,0.74 11.14,1.47 20.73,2.07 8.5,0.53 19.79,0.96 35.79,1.2l-0.1 -5.19 11.12 -1.79 0.16 -2.55 6.6 0.2 0 0.51 0 9.01c3.1,0.01 6.34,0.02 9.72,0.02 3.58,0 7.33,-0 11.26,-0.01 5.84,-0.55 11.41,-1.44 16.3,-3.19 4.48,-1.61 8.4,-3.94 11.43,-7.42 -2.14,-2.46 -4.72,-4.34 -7.62,-5.8 -3.24,-1.63 -6.89,-2.74 -10.8,-3.52l-1.39 -0.1c-29.29,5.69 -58.57,11.37 -87.86,17.05l-3.91 -14.35 14.97 -2.91c-13.43,0.66 -20.13,1.56 -26.43,2.48l0 7.02 0 -0.28zm73.12 14.32l0 -11.84 -4.29 -0.13 -0.15 2.35 -11.05 1.78 0.08 3.99 10.46 1.58 0.69 2.27 4.27 0zm32.13 -25.35l-3.07 -11.28 -88.57 17.19 3.07 11.28 88.57 -17.19z"/>
  </g>
  <path class="fil1" d="M102.9 4.6l1.97 7.24 -83.06 16.26 -1.97 -7.24 83.06 -16.26zm-4.44 3.39l0.62 2.45 -5.53 1.1 -0.62 -2.45 5.53 -1.1zm-11.25 2.24l0.62 2.45 -5.53 1.1 -0.62 -2.45 5.53 -1.1zm-11.25 2.24l0.62 2.45 -5.53 1.1 -0.62 -2.45 5.53 -1.1zm-11.25 2.24l0.62 2.45 -5.53 1.1 -0.62 -2.45 5.53 -1.1zm-11.25 2.24l0.62 2.45 -5.53 1.1 -0.62 -2.45 5.53 -1.1zm-11.25 2.24l0.62 2.45 -5.53 1.1 -0.62 -2.45 5.53 -1.1zm-11.25 2.24l0.62 2.45 -5.53 1.1 -0.62 -2.45 5.53 -1.1z"/>
 </g>
</svg>
