<?xml version="1.0" encoding="UTF-8"?>
<!DOCTYPE svg PUBLIC "-//W3C//DTD SVG 1.1//EN" "http://www.w3.org/Graphics/SVG/1.1/DTD/svg11.dtd">
<!-- Creator: CorelDRAW 2020 (64-Bit) -->
<svg xmlns="http://www.w3.org/2000/svg" xml:space="preserve" width="0.727476in" height="0.289579in" version="1.1" style="shape-rendering:geometricPrecision; text-rendering:geometricPrecision; image-rendering:optimizeQuality; fill-rule:evenodd; clip-rule:evenodd"
viewBox="0 0 7.24 2.88"
 xmlns:xlink="http://www.w3.org/1999/xlink"
 xmlns:xodm="http://www.corel.com/coreldraw/odm/2003">
 <defs>
  <style type="text/css">
   <![CDATA[
    .fil0 {fill:black}
   ]]>
  </style>
 </defs>
 <g id="Layer_x0020_1">
  <metadata id="CorelCorpID_0Corel-Layer"/>
  <g id="_1911129357712">
   <g>
    <path class="fil0" d="M-0 0.22l0 2.44c0,0.12 0.1,0.22 0.22,0.22l4.48 0c0.79,0 2.54,-0.65 2.54,-1.44l0 -0c0,-0.79 -1.75,-1.44 -2.54,-1.44l-4.48 0c-0.12,0 -0.22,0.1 -0.22,0.22zm6.35 1.24c-0.03,0.62 -1.37,1.05 -2.26,1.2l0.6 0c0.38,0 0.87,-0.15 1.22,-0.29 0.32,-0.13 1.1,-0.51 1.1,-0.93 0,-0.42 -0.78,-0.8 -1.1,-0.93 -0.35,-0.14 -0.84,-0.29 -1.22,-0.29l-1.01 0c0.78,0 2.62,0.48 2.66,1.24zm-2.66 1.2l0 -2.44 -3.47 0 0 2.44 3.47 0z"/>
    <rect class="fil0" transform="matrix(-4.48938E-14 0.565032 -0.565032 -4.48938E-14 1.15996 0.87874)" width="2.07" height="0.75"/>
   </g>
   <rect class="fil0" transform="matrix(-7.94536E-14 1 -1 -7.94536E-14 2.98603 1.78314)" width="0.64" height="0.46"/>
   <rect class="fil0" transform="matrix(-7.94536E-14 1 -1 -7.94536E-14 2.98603 0.601133)" width="0.64" height="0.46"/>
   <rect class="fil0" transform="matrix(-7.94536E-14 1 -1 -7.94536E-14 2.06325 1.78314)" width="0.64" height="0.46"/>
   <rect class="fil0" transform="matrix(-7.94536E-14 1 -1 -7.94536E-14 2.06325 0.601133)" width="0.64" height="0.46"/>
  </g>
 </g>
</svg>
