<?xml version="1.0" encoding="UTF-8"?>
<!DOCTYPE svg PUBLIC "-//W3C//DTD SVG 1.1//EN" "http://www.w3.org/Graphics/SVG/1.1/DTD/svg11.dtd">
<!-- Creator: CorelDRAW 2020 (64-Bit) -->
<svg xmlns="http://www.w3.org/2000/svg" xml:space="preserve" width="2.53435in" height="0.657142in" version="1.1" style="shape-rendering:geometricPrecision; text-rendering:geometricPrecision; image-rendering:optimizeQuality; fill-rule:evenodd; clip-rule:evenodd"
viewBox="0 0 87.73 22.75"
 xmlns:xlink="http://www.w3.org/1999/xlink"
 xmlns:xodm="http://www.corel.com/coreldraw/odm/2003">
 <defs>
  <style type="text/css">
   <![CDATA[
    .fil0 {fill:black}
   ]]>
  </style>
 </defs>
 <g id="Layer_x0020_1">
  <metadata id="CorelCorpID_0Corel-Layer"/>
  <g id="_1911139856800">
   <path class="fil0" d="M44.76 0l0 5.11 13.18 0c3.45,0 29.79,2.82 29.79,6.27l0 0c0,3.45 -26.34,6.27 -29.79,6.27l-13.18 0 0 5.11 -9.1 0 0 -5.11 -5.41 0c-2.37,0 -15.74,-1.33 -23.89,-3.28l-0.96 3.96 -5.41 0 0.67 -6c-0.43,-0.31 -0.67,-0.63 -0.67,-0.95l0 -0c0,-0.32 0.24,-0.64 0.67,-0.95l-0.67 -6 5.41 0 0.91 3.97c8.15,-1.95 21.57,-3.29 23.94,-3.29l5.41 0 0 -5.11 9.1 0zm-3.51 15.34c-1.82,-0.72 -3.04,-2.1 -3.04,-3.68 0,-1.58 1.23,-2.95 3.04,-3.68 -2.02,0.19 -3.81,0.59 -5.23,1.12 -1.89,0.71 -3.06,1.62 -3.06,2.56 0,0.94 1.17,1.85 3.06,2.56 1.42,0.53 3.21,0.92 5.23,1.12zm8.85 -3.68c0,1.58 -1.23,2.95 -3.04,3.68 2.02,-0.19 3.81,-0.59 5.23,-1.12 1.89,-0.71 3.06,-1.62 3.06,-2.56 0,-0.94 -1.17,-1.85 -3.06,-2.56 -1.42,-0.53 -3.21,-0.92 -5.23,-1.12 1.82,0.72 3.04,2.1 3.04,3.68zm6.46 0c0,1.5 -1.47,2.8 -3.85,3.69 -2.2,0.82 -5.23,1.34 -8.56,1.34 -3.33,0 -6.35,-0.51 -8.56,-1.34 -2.38,-0.89 -3.85,-2.19 -3.85,-3.69 0,-1.5 1.47,-2.8 3.85,-3.69 2.2,-0.82 5.23,-1.34 8.56,-1.34 3.33,0 6.35,0.51 8.56,1.34 2.38,0.89 3.85,2.19 3.85,3.69z"/>
   <circle class="fil0" transform="matrix(-4.72868E-14 0.59515 -0.59515 -4.72868E-14 44.3998 11.6692)" r="1.19"/>
  </g>
 </g>
</svg>
